<svg xmlns="http://www.w3.org/2000/svg" width="179.849" height="12.849" viewBox="0 0 179.849 12.849">
  <g id="lines" transform="translate(-421.076 -250.076)">
    <line id="Line_7" data-name="Line 7" x1="12" y2="12" transform="translate(421.5 250.5)" fill="none" stroke="rgba(117,117,117,0.37)" stroke-width="1.2"/>
    <line id="Line_34" data-name="Line 34" x1="12" y2="12" transform="translate(551.5 250.5)" fill="none" stroke="rgba(117,117,117,0.37)" stroke-width="1.2"/>
    <line id="Line_20" data-name="Line 20" x1="12" y2="12" transform="translate(488.5 250.5)" fill="none" stroke="rgba(117,117,117,0.37)" stroke-width="1.2"/>
    <line id="Line_8" data-name="Line 8" x1="12" y2="12" transform="translate(430.5 250.5)" fill="none" stroke="rgba(117,117,117,0.37)" stroke-width="1.2"/>
    <line id="Line_32" data-name="Line 32" x1="12" y2="12" transform="translate(560.5 250.5)" fill="none" stroke="rgba(117,117,117,0.37)" stroke-width="1.2"/>
    <line id="Line_19" data-name="Line 19" x1="12" y2="12" transform="translate(497.5 250.5)" fill="none" stroke="rgba(117,117,117,0.37)" stroke-width="1.2"/>
    <line id="Line_9" data-name="Line 9" x1="12" y2="12" transform="translate(439.5 250.5)" fill="none" stroke="rgba(117,117,117,0.37)" stroke-width="1.2"/>
    <line id="Line_30" data-name="Line 30" x1="12" y2="12" transform="translate(569.5 250.5)" fill="none" stroke="rgba(117,117,117,0.37)" stroke-width="1.2"/>
    <line id="Line_18" data-name="Line 18" x1="12" y2="12" transform="translate(506.5 250.5)" fill="none" stroke="rgba(117,117,117,0.37)" stroke-width="1.2"/>
    <line id="Line_10" data-name="Line 10" x1="12" y2="12" transform="translate(449.5 250.5)" fill="none" stroke="rgba(117,117,117,0.37)" stroke-width="1.2"/>
    <line id="Line_28" data-name="Line 28" x1="12" y2="12" transform="translate(579.5 250.5)" fill="none" stroke="rgba(117,117,117,0.37)" stroke-width="1.2"/>
    <line id="Line_17" data-name="Line 17" x1="12" y2="12" transform="translate(516.5 250.5)" fill="none" stroke="rgba(117,117,117,0.37)" stroke-width="1.2"/>
    <line id="Line_11" data-name="Line 11" x1="12" y2="12" transform="translate(458.5 250.5)" fill="none" stroke="rgba(117,117,117,0.37)" stroke-width="1.2"/>
    <line id="Line_26" data-name="Line 26" x1="12" y2="12" transform="translate(588.5 250.5)" fill="none" stroke="rgba(117,117,117,0.37)" stroke-width="1.2"/>
    <line id="Line_16" data-name="Line 16" x1="12" y2="12" transform="translate(525.5 250.5)" fill="none" stroke="rgba(117,117,117,0.37)" stroke-width="1.2"/>
    <line id="Line_12" data-name="Line 12" x1="12" y2="12" transform="translate(468.5 250.5)" fill="none" stroke="rgba(117,117,117,0.37)" stroke-width="1.2"/>
    <line id="Line_15" data-name="Line 15" x1="12" y2="12" transform="translate(535.5 250.5)" fill="none" stroke="rgba(117,117,117,0.37)" stroke-width="1.2"/>
    <line id="Line_13" data-name="Line 13" x1="12" y2="12" transform="translate(478.5 250.5)" fill="none" stroke="rgba(117,117,117,0.37)" stroke-width="1.2"/>
    <line id="Line_14" data-name="Line 14" x1="12" y2="12" transform="translate(543.5 250.5)" fill="none" stroke="rgba(117,117,117,0.37)" stroke-width="1.2"/>
  </g>
</svg>
